<?xml version="1.0" encoding="UTF-8"?>
<svg width="24px" height="24px" viewBox="0 0 24 24" version="1.1" xmlns="http://www.w3.org/2000/svg" xmlns:xlink="http://www.w3.org/1999/xlink">
    <!-- Generator: Sketch 53 (72520) - https://sketchapp.com -->
    <title>Icon / flag</title>
    <desc>Created with Sketch.</desc>
    <g id="Icon-/-flag" stroke="none" stroke-width="1" fill="none" fill-rule="evenodd">
        <path d="M22,8 L11,8 L11,9 L22,9 L22,8 Z M22,7 L22,6 L11,6 L11,7 L22,7 Z M22,10 L11,10 L11,11 L22,11 L22,10 Z M22,17 L22,16 L2,16 L2,17 L22,17 Z M22,18 L2,18 L2,19 L22,19 L22,18 Z M22,15 L22,14 L2,14 L2,15 L22,15 Z M22,13 L22,12 L2,12 L2,13 L22,13 Z M2,5 L22,5 C22.5522847,5 23,5.44771525 23,6 L23,19 C23,19.5522847 22.5522847,20 22,20 L2,20 C1.44771525,20 1,19.5522847 1,19 L1,6 C1,5.44771525 1.44771525,5 2,5 Z" id="Combined-Shape" fill="#FFFFFF" fill-rule="nonzero"></path>
    </g>
</svg>