<svg id="b72303f2-eec8-4193-b150-b4ef382b828e" data-name="Layer 1" xmlns="http://www.w3.org/2000/svg" viewBox="0 0 167.81 70.64"><title>footer_logo</title><path d="M154.78,2.45H7.48a5,5,0,0,0-5,5V42.66a6.29,6.29,0,0,0,4.44,5.82l70.67,19.3a15.65,15.65,0,0,0,7.14,0l70.68-19.3a6.29,6.29,0,0,0,4.44-5.82V7.48A5,5,0,0,0,154.78,2.45Z" style="fill:#080006;isolation:isolate"/><path d="M154.78,0H7.48A7.49,7.49,0,0,0,0,7.48V42.66a8.72,8.72,0,0,0,6.24,8.18l70.67,19.3a18,18,0,0,0,8.44,0L156,50.84a8.72,8.72,0,0,0,6.25-8.18V7.48A7.5,7.5,0,0,0,154.78,0Z" style="fill:#080006"/><path d="M154.78,2.45H7.48a5,5,0,0,0-5,5V42.66a6.29,6.29,0,0,0,4.44,5.82l70.67,19.3a15.65,15.65,0,0,0,7.14,0l70.68-19.3a6.29,6.29,0,0,0,4.44-5.82V7.48A5,5,0,0,0,154.78,2.45Z" style="fill:#fff"/><path d="M158,42.66a4.45,4.45,0,0,1-3.09,4.05L84.22,66A14,14,0,0,1,78,66L7.37,46.71a4.45,4.45,0,0,1-3.09-4.05V7.48a3.21,3.21,0,0,1,3.2-3.2h147.3a3.21,3.21,0,0,1,3.2,3.2Z" style="fill:#c4161d"/><path d="M74.31,50.07c0-.31.34-.57.21-1-.42-1.44-2.46-2-3.8-2.57s-2.42-1-3.61-1.53c-.45-.2-.89-.21-1.36-.37-.91-.31-2-.6-3-.84l-2,.06a7,7,0,0,0-.26-.91l-.06-.59c0-.18-.26-.5-.13-.72s.24-.31.34-.48c.27-.46.5-.93.76-1.37.13-.22.12-.48.43-.53a11.16,11.16,0,0,1,1.78,0,16.44,16.44,0,0,0,1.71,0c.49,0,1.14,0,1.79,0l1.47,0a6,6,0,0,0,1.27,0h1.55l1,0a6.34,6.34,0,0,0,1.15,0H75l1,0a7.71,7.71,0,0,0,1.36,0h2.1c.74,0,1.5,0,2.31,0a7.31,7.31,0,0,1,1.62,0c.35.07.82-.06,1.12,0l1,0a11.71,11.71,0,0,1,2.07.07,5.12,5.12,0,0,0,.62,1.13L91,40.23a3.12,3.12,0,0,0,.34.71l2.93-.08,2,0a1.66,1.66,0,0,0,.6,0c.41-.09,1.52.06,2.14-.1.36-.09.9,0,1.31-.07a14.62,14.62,0,0,1,2.78-.11l0,0c0,.19.1.28.13.48-.4.26-.69.68-1.09.94-.13.09-.32.07-.43.17s-.13.19-.19.28c-.32.25-.66.42-1,.66s-.45.48-.7.66c-.08,0-.23,0-.31.08a1,1,0,0,0,0,.17,2.86,2.86,0,0,1-.38.4,4,4,0,0,1-.63.26c-.29.13-.64.36-.94.5s-.63.16-1,.3c-1,.36-2,.69-3,1s-2.41.47-3.55.81a10.2,10.2,0,0,0-1.54.4c-.5.24-1,.64-1.52.91s-1.18.52-1.2,1.26l0,0c.26,0,.75,0,.88.14s0,.26.09.43.13.14.16.2a5.17,5.17,0,0,1,.21.63c.09.24,0,.51.26.62s1.06,0,1.39.17c.72.39.38,1.7.46,2.49a2.47,2.47,0,0,1-.9.38,1.23,1.23,0,0,0,0,.16,2.76,2.76,0,0,1,.26.75,9.09,9.09,0,0,1,.76,3.24l0,0a5.83,5.83,0,0,0-1.07.18l-.87.11a2,2,0,0,1-.83.14,3.51,3.51,0,0,1-.4-.27c-.28-.16-.54-.25-.81-.42a4.2,4.2,0,0,0-.77-.53,12.27,12.27,0,0,0-6.64-.23l-.71.1A5.81,5.81,0,0,0,74.52,60c-.65,0-2.37.14-2.54-.29-.11-.16,0-.52-.06-.75a9.45,9.45,0,0,0-.16-1.55,2,2,0,0,1-1.45-.79c0-.63-.09-1.25-.13-1.87.11-.16.23-.32.34-.49A2.6,2.6,0,0,1,71.91,54c.25-.39.36-.28.33-1l.09-2.82h.07A8.86,8.86,0,0,1,74.31,50.07Z" style="fill:#fff;fill-rule:evenodd"/><path d="M22.5,45.26l-.54.45-.74-.83a2.52,2.52,0,0,1-1.28.33,2.48,2.48,0,1,1,1.83-.76Zm-2.32-1.54.54-.46s.58.64.57.64a1.92,1.92,0,0,0,.37-1.19,1.68,1.68,0,1,0-.92,1.63Z" style="fill:#fff"/><path d="M24.52,43.43V40.27h.77v3.11a1,1,0,0,0,1.1,1.14c.7,0,1.09-.36,1.09-1.14V40.27h.77v3.16a1.69,1.69,0,0,1-1.86,1.78A1.69,1.69,0,0,1,24.52,43.43Z" style="fill:#fff"/><path d="M30.73,45.15H30l2.13-5h0l2.14,5h-.81l-.28-.68H31Zm1.38-3.3-.81,1.93h1.6S32.11,41.85,32.11,41.85Z" style="fill:#fff"/><path d="M36.23,40.27H37v4.2h2.15v.68H36.23Z" style="fill:#fff"/><path d="M41.22,40.27H42v4.88h-.77Z" style="fill:#fff"/><path d="M45.43,41H44v-.68h3.67V41H46.2v4.2h-.77Z" style="fill:#fff"/><path d="M49.24,40.27h.85l1.38,2.55,1.37-2.55h.8l-1.79,3.32v1.56h-.77V43.6Z" style="fill:#fff"/><path d="M110.49,42.71A2.46,2.46,0,0,1,113,40.2a2.25,2.25,0,0,1,2,.95l-.59.42A1.56,1.56,0,0,0,113,40.9a1.81,1.81,0,0,0,0,3.62,1.73,1.73,0,0,0,1.46-.71l.6.41a2.54,2.54,0,0,1-4.56-1.51Z" style="fill:#fff"/><path d="M116.88,42.71a2.52,2.52,0,1,1,2.52,2.5A2.48,2.48,0,0,1,116.88,42.71Zm4.24,0a1.73,1.73,0,1,0-1.72,1.81A1.71,1.71,0,0,0,121.12,42.71Z" style="fill:#fff"/><path d="M124.15,43.43V40.27h.76v3.11a1,1,0,0,0,1.1,1.14c.7,0,1.09-.36,1.09-1.14V40.27h.77v3.16a1.86,1.86,0,0,1-3.72,0Z" style="fill:#fff"/><path d="M131.05,41.94v3.21h-.71V40.2h0l3.13,3.28V40.27h.72v4.95h-.06Z" style="fill:#fff"/><path d="M137.82,41h-1.45v-.68H140V41h-1.45v4.2h-.77Z" style="fill:#fff"/><path d="M142.38,43.86a1.17,1.17,0,0,0,1.1.66c.52,0,.86-.24.86-.64s-.34-.61-.77-.81l-.34-.15c-.72-.31-1.2-.68-1.2-1.45a1.26,1.26,0,0,1,1.35-1.27,1.49,1.49,0,0,1,1.39.77l-.58.38a.85.85,0,0,0-.79-.47.56.56,0,0,0-.63.57c0,.38.24.53.77.77l.34.15c.74.33,1.22.67,1.22,1.49s-.68,1.35-1.61,1.35a1.9,1.9,0,0,1-1.76-1Z" style="fill:#fff"/><path d="M147.11,41.13a.5.5,0,0,1-.3-.44.49.49,0,0,1,1,0,.94.94,0,0,1-.17.5l-.38.61h-.36Zm1.27,0a.5.5,0,0,1-.3-.44.49.49,0,1,1,1,0,.93.93,0,0,1-.16.5l-.39.61h-.36Z" style="fill:#fff"/><path d="M15.42,41.79h-.36l-.38-.61a.94.94,0,0,1-.17-.5.49.49,0,1,1,1,0,.5.5,0,0,1-.3.44Zm-1.27,0h-.36l-.38-.61a.94.94,0,0,1-.17-.5.49.49,0,1,1,1,0,.5.5,0,0,1-.3.44Z" style="fill:#fff"/><path d="M25.4,22.78a9.9,9.9,0,0,0,4.22-1.85,6.92,6.92,0,0,0,2.67-3.75,5,5,0,0,0,.23-1.48A5.93,5.93,0,0,0,30,10.92a11.13,11.13,0,0,0-6.56-2.18A16.71,16.71,0,0,0,15,10.52c-2.77,1.39-4.34,3.1-4.71,5.15a4.25,4.25,0,0,0-.07.69,3.59,3.59,0,0,0,1.26,2.74,3.83,3.83,0,0,0,1.69,1,.88.88,0,0,0,.86-.17c.19-.22.15-.4-.14-.53s-.61-.82-.61-1.87a5,5,0,0,1,.73-2.64A8,8,0,0,1,17.41,12a10.79,10.79,0,0,1,5.25-1,6.83,6.83,0,0,1,1.06.13,10.55,10.55,0,0,0-1.15.59,15.11,15.11,0,0,0-6.36,7.68L13,27a8.79,8.79,0,0,1-2.54,3.65,3,3,0,0,1-2.34.79,1.52,1.52,0,0,1-.94-.56A1.43,1.43,0,0,1,6.82,30a.38.38,0,0,0-.1-.28.4.4,0,0,0-.23-.08.58.58,0,0,0-.5.49,5.24,5.24,0,0,0-.16,1.21,2.7,2.7,0,0,0,1.65,2.62,4.31,4.31,0,0,0,1.87.39q3.83,0,6.4-4.18a3.9,3.9,0,0,0-.1.88c0,2.09,1.2,3.36,3.62,3.82a6.22,6.22,0,0,0,1.32.13,8,8,0,0,0,4.21-1.18A7.5,7.5,0,0,0,28,29.9a6.92,6.92,0,0,0,.43-2.34,5.07,5.07,0,0,0-1-3.07A4.85,4.85,0,0,0,25.4,22.78Zm-1.11,5.41a7.13,7.13,0,0,1-1.69,3.18,2.94,2.94,0,0,1-2.6.94,1.82,1.82,0,0,1-1.35-1,3.23,3.23,0,0,1-.4-1.61,1.51,1.51,0,0,1,.13-.73c.35-.5.36-.81,0-.92a2.27,2.27,0,0,0-1.85.49l2.26-5.37,1.45.27q4.18.75,4.18,3.62A4.25,4.25,0,0,1,24.29,28.19Zm-2.21-7.44a8.74,8.74,0,0,1-2.18-.27l.52-1.31a20.91,20.91,0,0,1,3-5.51,11.26,11.26,0,0,1,2.21-2q2.94,1.35,2.94,4.05a4.1,4.1,0,0,1-.26,1.42,4.82,4.82,0,0,1-2.51,2.76A8.13,8.13,0,0,1,22.08,20.75Z" style="fill:#fff"/><path d="M36.06,19.26a2.47,2.47,0,0,0,1.52-.69,5.71,5.71,0,0,0,1.35-1.68,3.34,3.34,0,0,0,.43-1.46c0-.63-.28-.95-.83-.95a2.36,2.36,0,0,0-1.51.71,5.77,5.77,0,0,0-1.35,1.7,3,3,0,0,0-.43,1.42C35.24,19,35.51,19.26,36.06,19.26Z" style="fill:#fff"/><path d="M104.43,8.55q-1.71,0-4.68,3.16a38.44,38.44,0,0,0-5.86,8.44,31.37,31.37,0,0,0-3.09,7.76,10.47,10.47,0,0,1-1.56,2.29c-1.1,1.23-2,1.85-2.87,1.85s-1.31-.56-1.31-1.68q0-3.24,3.56-10.45a48.39,48.39,0,0,1,3.72-6.36c1.12-1.55,1.87-2.29,2.27-2.2q.33.06.33.69a7.91,7.91,0,0,1-.76,2.83,20.76,20.76,0,0,1-2,3.86,20.34,20.34,0,0,1-4.61,5.07,1.11,1.11,0,0,0-.33,1.32c.06.24.19.36.36.36a1,1,0,0,0,.53-.23,24.92,24.92,0,0,0,5.37-6.06,28.28,28.28,0,0,0,2.4-4.65A12.29,12.29,0,0,0,97,10.2c0-1.1-.39-1.65-1.18-1.65-1.15,0-2.7,1-4.68,3.16a38.8,38.8,0,0,0-5.87,8.44,31.36,31.36,0,0,0-3.07,7.74,14.4,14.4,0,0,1-1.6,2.28,5.31,5.31,0,0,1-3.85,1.91c-1.43,0-2.12-.66-2.08-2l0-.37a13.08,13.08,0,0,0,4.81-2.82c1.78-1.58,2.66-3.13,2.66-4.64,0-1.1-.71-1.65-2.14-1.65-2.08,0-4.11,1.06-6.08,3.16a10.71,10.71,0,0,0-2.77,4.76c-.17.28-.35.57-.55.86-.86,1.21-1.72,1.81-2.57,1.81a1.67,1.67,0,0,1-1.39-.89A23.3,23.3,0,0,0,69.79,26a8.2,8.2,0,0,0,1.35-3.92c0-1-.41-1.57-1.25-1.72l-.49,0a2.92,2.92,0,0,0-2.34,1.22,3.12,3.12,0,0,0-.83,1.82c0,.22.08.3.23.24a1.63,1.63,0,0,1,.53-.1q.69,0,.69,1a4.64,4.64,0,0,1-.55,2.11A13.65,13.65,0,0,1,65,29.84c-1,1-1.86,1.49-2.54,1.38-.33,0-.49-.29-.49-.75a3.52,3.52,0,0,1,.29-1.25l3.43-8a1.27,1.27,0,0,0,.07-.36c0-.35-.26-.52-.76-.52a3.51,3.51,0,0,0-1.48.39,1.93,1.93,0,0,0-1,.86l-3.69,8.12c-.88,1.17-1.68,1.66-2.41,1.48-.33-.06-.49-.32-.49-.79a3.25,3.25,0,0,1,.29-1.21l3.46-7.83a.6.6,0,0,0,.1-.33c0-.46-.3-.69-.89-.69a3.51,3.51,0,0,0-1.48.39,1.92,1.92,0,0,0-1,.85l-3.23,7.15a7.63,7.63,0,0,1-1.75,2,2.63,2.63,0,0,1-1.59.6c-.76,0-1.15-.36-1.15-1.06A3.73,3.73,0,0,1,49,28.79l2.5-5.47h1.26a1.41,1.41,0,0,0,1.08-.6,3.23,3.23,0,0,0,.66-1.19c.09-.42,0-.63-.23-.63H52.62L54.89,16a.76.76,0,0,0,.1-.36c0-.24-.16-.4-.49-.46a3.43,3.43,0,0,0-1.71.26,2.73,2.73,0,0,0-1.45,1.28l-2,4.19h-.43a1.62,1.62,0,0,0-1.22.53,1.77,1.77,0,0,0-.49,1.26q0,.63.36.63h.63l-2.16,4.56a10.86,10.86,0,0,1-1.58,2.32c-1.1,1.23-2,1.85-2.87,1.85s-1.31-.56-1.31-1.68q0-3.24,3.55-10.45a49.48,49.48,0,0,1,3.73-6.36c1.12-1.55,1.87-2.29,2.27-2.2q.33.06.33.69a7.91,7.91,0,0,1-.76,2.83,21.38,21.38,0,0,1-2,3.86,20.34,20.34,0,0,1-4.61,5.07,1.11,1.11,0,0,0-.33,1.32q.09.36.36.36a1,1,0,0,0,.53-.23,24.92,24.92,0,0,0,5.37-6.06,28.28,28.28,0,0,0,2.4-4.65,12.29,12.29,0,0,0,1.12-4.35c0-1.1-.39-1.65-1.18-1.65q-1.72,0-4.68,3.16a38.8,38.8,0,0,0-5.87,8.44,31.06,31.06,0,0,0-3.13,8q-1.74,3.08-3.3,3.07c-.64,0-.95-.29-.95-.89a4.21,4.21,0,0,1,.39-1.55l3.43-7.62c.09-.2,0-.3-.1-.3H34.08a.33.33,0,0,0-.32.2L29.9,29.24a4.77,4.77,0,0,0-.49,2.05,2.68,2.68,0,0,0,.84,2.06,3,3,0,0,0,2.25.71A6.66,6.66,0,0,0,37,32l.2-.21A2.64,2.64,0,0,0,38.7,34a4.43,4.43,0,0,0,1.72.33,6.92,6.92,0,0,0,4.67-1.87,2.26,2.26,0,0,0,.61.86,3.12,3.12,0,0,0,2.18.75,7.05,7.05,0,0,0,4.47-1.5,1.88,1.88,0,0,0,.38.58,2.37,2.37,0,0,0,1.28.77,3,3,0,0,0,.66.07,4.56,4.56,0,0,0,3.59-1.87,1.72,1.72,0,0,0,.58,1.28,1.88,1.88,0,0,0,1.23.59,5.34,5.34,0,0,0,3.69-1.24,3.08,3.08,0,0,0,.93.8,2.62,2.62,0,0,0,1.25.44,5.75,5.75,0,0,0,2.37-.26A14.11,14.11,0,0,0,69.79,33a6,6,0,0,0,1.47-1.25,3.56,3.56,0,0,0,1.12,1.58,5.31,5.31,0,0,0,3.33,1A8.06,8.06,0,0,0,82,31.71,2.66,2.66,0,0,0,83.48,34a4.34,4.34,0,0,0,1.71.33,7.23,7.23,0,0,0,5.39-2.58A2.67,2.67,0,0,0,92.11,34a4.34,4.34,0,0,0,1.71.33,7.34,7.34,0,0,0,5.57-2.77,8,8,0,0,0,1.48-2.63,1,1,0,0,0-.26-1.22,1,1,0,0,0-.63-.3.45.45,0,0,0-.43.3,10.71,10.71,0,0,1-1.68,2.5c-1.1,1.23-2.05,1.85-2.86,1.85s-1.32-.56-1.32-1.68q0-3.24,3.56-10.45A48.39,48.39,0,0,1,101,13.56c1.12-1.55,1.88-2.29,2.27-2.2q.33.06.33.69a7.91,7.91,0,0,1-.76,2.83,20.19,20.19,0,0,1-2,3.86,20.16,20.16,0,0,1-4.61,5.07,1.14,1.14,0,0,0-.33,1.32q.11.36.36.36a.92.92,0,0,0,.53-.23,24.92,24.92,0,0,0,5.37-6.06,28.28,28.28,0,0,0,2.4-4.65,12.29,12.29,0,0,0,1.12-4.35C105.61,9.1,105.22,8.55,104.43,8.55Zm-27.27,16c1.21-1.63,2.19-2.44,3-2.44.37,0,.56.18.56.53,0,1-.71,2-2.14,3.23a14.69,14.69,0,0,1-3.46,2.24A15,15,0,0,1,77.16,24.57Z" style="fill:#fff"/><path d="M126.51,24.4q4.17-6.94,4.18-12.26c0-2.37-.7-3.66-2.08-3.86s-3,.78-4.88,3a23.51,23.51,0,0,0-4.3,8,26.42,26.42,0,0,0-1.38,8.08,14.3,14.3,0,0,0,.1,1.79q-2.37,2.23-3.92,2.24a2.11,2.11,0,0,1-1.92-1.13,4.3,4.3,0,0,1-.59-2.28c0-.56.08-.85.23-.9a.39.39,0,0,1,.26,0,5.31,5.31,0,0,0,1.82.26,7.82,7.82,0,0,0,2.34-.36.78.78,0,0,0,.56-.85c0-.35-.18-.49-.46-.43a13.35,13.35,0,0,1-3,.11,10.48,10.48,0,0,1-2.8-.5c-.4-.14-.65.07-.76.62a19.5,19.5,0,0,0-.29,3.11q0,4.33,2.7,5.1a4.85,4.85,0,0,0,1.31.16A10.15,10.15,0,0,0,119,32.38c.66,1.29,1.35,1.94,2.07,1.94s.93-.29.93-.89a.71.71,0,0,0-.33-.62,3.75,3.75,0,0,1-1.16-1.49A25.75,25.75,0,0,0,126.51,24.4Zm-6.78,3.07A21.11,21.11,0,0,1,121,20,25.47,25.47,0,0,1,123.71,14c1.07-1.66,2-2.49,2.83-2.49.55,0,.82.4.82,1.19A13.11,13.11,0,0,1,126,17.42a40.74,40.74,0,0,1-3.29,6.06A37.33,37.33,0,0,1,119.73,27.47Z" style="fill:#fff"/><path d="M151.58,27.4a.48.48,0,0,0-.43.3,21.66,21.66,0,0,1-1.68,2.47,5.4,5.4,0,0,1-3.86,1.91c-1.38,0-2.08-.66-2.08-2a9.87,9.87,0,0,1,1.88-4.81c1.34-2.1,2.57-3.16,3.69-3.16.62,0,.93.2.93.59a1.73,1.73,0,0,0-1.5.55,2,2,0,0,0-.71,1.5c0,.59.32.89,1,.89a2,2,0,0,0,1.62-1.09,3.72,3.72,0,0,0,.72-2,1.69,1.69,0,0,0-.64-1.4,2.44,2.44,0,0,0-1.56-.51q-3.1,0-6.08,3.09a10,10,0,0,0-2.89,5.09c-1,1.61-2,2.41-2.93,2.41-.64,0-.95-.28-.95-.85a10.32,10.32,0,0,1,1.12-3.21,16.39,16.39,0,0,0,1.25-3.38,4.53,4.53,0,0,0,0-.52c0-1.56-.71-2.35-2.14-2.4a4.59,4.59,0,0,0-3.72,1.83l.59-1.43c.11-.26,0-.4-.3-.4H131a.49.49,0,0,0-.49.3l-5.7,12.37c-.09.2,0,.3.17.3h2.6a.45.45,0,0,0,.43-.3l2.73-5.9a15.32,15.32,0,0,1,1.68-2.86c.82-1.06,1.48-1.58,2-1.58s.63.28.63.85a5.24,5.24,0,0,1-.66,2.27L133,29.24a4.76,4.76,0,0,0-.53,2,2.49,2.49,0,0,0,.86,2,3.32,3.32,0,0,0,2.18.71A5.94,5.94,0,0,0,139,32.77a8.39,8.39,0,0,0,1.16-1,3.63,3.63,0,0,0,1,1.44,5.14,5.14,0,0,0,3.36,1,8,8,0,0,0,6.36-2.7c1.12-1.3,1.68-2.29,1.68-3a1.25,1.25,0,0,0-.31-.79A1,1,0,0,0,151.58,27.4Z" style="fill:#fff"/><path d="M156,29.31a2.48,2.48,0,0,0-1.5.71,5.77,5.77,0,0,0-1.36,1.7,3.22,3.22,0,0,0-.4,1.45c0,.62.27.92.79.92a2.52,2.52,0,0,0,1.53-.69,5.11,5.11,0,0,0,1.34-1.68,3.18,3.18,0,0,0,.43-1.45C156.83,29.63,156.55,29.31,156,29.31Z" style="fill:#fff"/><path d="M167.81,4a2.09,2.09,0,0,1-.17.88,2,2,0,0,1-.46.68,2,2,0,0,1-.67.43,2,2,0,0,1-.8.16,2.15,2.15,0,0,1-.85-.17,1.8,1.8,0,0,1-.67-.45,2,2,0,0,1-.43-.68A2.15,2.15,0,0,1,163.6,4a2.3,2.3,0,0,1,.17-.88,1.86,1.86,0,0,1,.46-.67A2,2,0,0,1,164.9,2a2.25,2.25,0,0,1,.81-.16,2.15,2.15,0,0,1,.8.16,1.91,1.91,0,0,1,.67.44,1.86,1.86,0,0,1,.46.67A2.13,2.13,0,0,1,167.81,4Zm-.46,0a2.09,2.09,0,0,0-.12-.72,1.89,1.89,0,0,0-.35-.56,1.47,1.47,0,0,0-.53-.36,1.5,1.5,0,0,0-.64-.13,1.57,1.57,0,0,0-.65.13,1.47,1.47,0,0,0-.53.36,2.12,2.12,0,0,0-.35.56,2.09,2.09,0,0,0-.12.72,2.17,2.17,0,0,0,.11.69,1.84,1.84,0,0,0,.33.56,1.62,1.62,0,0,0,.52.38,1.58,1.58,0,0,0,.69.15,1.66,1.66,0,0,0,.64-.13,1.64,1.64,0,0,0,.53-.37,1.77,1.77,0,0,0,.35-.56A2,2,0,0,0,167.35,4Zm-2.06,1.23h-.39V2.81h.9a1.17,1.17,0,0,1,.65.16.64.64,0,0,1,.21.53.58.58,0,0,1-.17.47.75.75,0,0,1-.45.17l.67,1.05h-.44l-.62-1h-.36Zm.43-1.35h.21a.35.35,0,0,0,.18-.05.25.25,0,0,0,.12-.11.37.37,0,0,0,0-.2.29.29,0,0,0,0-.17.31.31,0,0,0-.13-.1.43.43,0,0,0-.16-.05h-.65v.69Z" style="fill:#211915"/></svg>