<?xml version="1.0" standalone="no"?>
<!DOCTYPE svg PUBLIC "-//W3C//DTD SVG 20010904//EN"
 "http://www.w3.org/TR/2001/REC-SVG-20010904/DTD/svg10.dtd">
<svg version="1.0" xmlns="http://www.w3.org/2000/svg"
 width="500.000000pt" height="500.000000pt" viewBox="0 0 500.000000 500.000000"
 preserveAspectRatio="xMidYMid meet">
<metadata>
Created by potrace 1.11, written by Peter Selinger 2001-2013
</metadata>
<g transform="translate(0.000000,500.000000) scale(0.100000,-0.100000)"
fill="#000000" stroke="none">
<path d="M2360 4764 c-720 -90 -1311 -449 -1702 -1034 -78 -118 -189 -334
-232 -455 -16 -44 -40 -91 -52 -104 -26 -26 -39 -78 -29 -113 8 -25 41 -65 66
-79 9 -4 173 -22 365 -38 192 -17 376 -35 409 -41 33 -6 101 -31 152 -55 158
-77 234 -174 256 -330 20 -137 -36 -385 -116 -508 -128 -199 -378 -325 -735
-372 -122 -16 -378 -20 -541 -9 -94 6 -97 6 -128 -20 -42 -35 -58 -85 -43
-130 6 -19 18 -40 26 -46 10 -9 14 -38 14 -115 0 -283 65 -596 171 -824 24
-52 39 -98 39 -123 0 -47 20 -89 56 -117 33 -26 113 -27 364 -6 784 69 1748
236 2645 459 440 109 952 265 1085 330 53 26 94 93 86 139 -4 21 5 44 40 97
65 100 165 306 212 435 149 409 176 857 76 1296 -134 596 -500 1102 -1036
1435 -172 107 -409 208 -604 259 -210 55 -312 67 -569 70 -132 2 -256 1 -275
-1z m550 -170 c536 -80 1032 -362 1369 -779 316 -392 491 -921 467 -1417 -17
-360 -116 -691 -303 -1005 -30 -51 -61 -93 -68 -93 -6 0 -79 -24 -162 -54
-639 -233 -1866 -513 -2828 -646 -381 -52 -939 -108 -969 -97 -15 6 -86 182
-119 297 -39 135 -58 263 -64 425 l-6 150 229 0 c247 1 374 15 557 61 349 88
593 265 718 521 90 185 133 483 95 657 -47 211 -194 378 -415 471 -120 51
-186 62 -521 91 -173 15 -316 28 -318 29 -1 1 3 16 9 34 10 29 14 31 44 25 49
-9 91 4 125 37 53 54 49 143 -10 192 l-29 25 60 92 c97 149 176 248 299 370
179 180 352 303 582 415 249 122 519 194 818 219 84 7 334 -4 440 -20z"/>
<path d="M2385 4439 c-340 -29 -710 -153 -969 -326 -251 -167 -455 -436 -404
-532 24 -45 62 -60 253 -105 272 -63 353 -97 483 -199 174 -137 281 -361 313
-654 19 -180 -3 -519 -41 -629 -9 -27 -17 -32 -52 -37 -29 -4 -51 -16 -77 -41
-34 -34 -36 -40 -36 -100 0 -49 5 -69 19 -85 19 -20 18 -21 -24 -77 -230 -298
-695 -489 -1268 -520 l-132 -7 0 -76 c0 -94 14 -187 41 -268 l20 -61 52 4 c29
2 138 11 242 20 587 48 1339 160 1868 279 474 107 899 226 1413 396 l211 70
46 97 c212 455 286 967 197 1373 -114 525 -520 1008 -1075 1280 -355 173 -676
232 -1080 198z"/>
<path d="M1309 3397 c-69 -46 -76 -142 -14 -204 30 -30 39 -33 90 -33 51 0 60
3 90 33 87 87 31 227 -90 227 -27 0 -54 -8 -76 -23z"/>
</g>
</svg>
