<?xml version="1.0" encoding="UTF-8"?>
<svg width="24px" height="24px" viewBox="0 0 24 24" version="1.1" xmlns="http://www.w3.org/2000/svg" xmlns:xlink="http://www.w3.org/1999/xlink">
    <!-- Generator: Sketch 53 (72520) - https://sketchapp.com -->
    <title>Icon / truck</title>
    <desc>Created with Sketch.</desc>
    <g id="Icon-/-truck" stroke="none" stroke-width="1" fill="none" fill-rule="evenodd">
        <path d="M9,8 L3.5,8 C2.11928813,8 1,9.11928813 1,10.5 L1,16.5 C1,16.7761424 1.22385763,17 1.5,17 L2.5,17 C2.77614237,17 3,17.2238576 3,17.5 C3,17.7761424 2.77614237,18 2.5,18 L1.5,18 C0.671572875,18 1.66533454e-16,17.3284271 0,16.5 L0,10.5 C2.59052039e-16,8.56700338 1.56700338,7 3.5,7 L9.5,7 C9.77614237,7 10,7.22385763 10,7.5 L10,15.5 C10,15.7761424 9.77614237,16 9.5,16 C9.22385763,16 9,15.7761424 9,15.5 L9,8 Z M6.5,20 C5.11928813,20 4,18.8807119 4,17.5 C4,16.1192881 5.11928813,15 6.5,15 C7.88071187,15 9,16.1192881 9,17.5 C9,18.8807119 7.88071187,20 6.5,20 Z M6.5,19 C7.32842712,19 8,18.3284271 8,17.5 C8,16.6715729 7.32842712,16 6.5,16 C5.67157288,16 5,16.6715729 5,17.5 C5,18.3284271 5.67157288,19 6.5,19 Z M19.5,20 C18.1192881,20 17,18.8807119 17,17.5 C17,16.1192881 18.1192881,15 19.5,15 C20.8807119,15 22,16.1192881 22,17.5 C22,18.8807119 20.8807119,20 19.5,20 Z M19.5,19 C20.3284271,19 21,18.3284271 21,17.5 C21,16.6715729 20.3284271,16 19.5,16 C18.6715729,16 18,16.6715729 18,17.5 C18,18.3284271 18.6715729,19 19.5,19 Z M10,14 L10,15 C10,15.2761424 9.77614237,15.5 9.5,15.5 C9.22385763,15.5 9,15.2761424 9,15 L9,13.5 C9,13.2238576 9.22385763,13 9.5,13 L23.5,13 C23.7761424,13 24,13.2238576 24,13.5 L24,15.5 C24,15.7761424 23.7761424,16 23.5,16 C23.2238576,16 23,15.7761424 23,15.5 L23,14 L10,14 Z M0.5,13 C0.223857625,13 0,12.7761424 0,12.5 C0,12.2238576 0.223857625,12 0.5,12 L5.5,12 C5.77614237,12 6,11.7761424 6,11.5 L6,7.5 C6,7.22385763 6.22385763,7 6.5,7 C6.77614237,7 7,7.22385763 7,7.5 L7,11.5 C7,12.3284271 6.32842712,13 5.5,13 L0.5,13 Z M10.5,18 C10.2238576,18 10,17.7761424 10,17.5 C10,17.2238576 10.2238576,17 10.5,17 L15,17 C15.2761424,17 15.5,17.2238576 15.5,17.5 C15.5,17.7761424 15.2761424,18 15,18 L10.5,18 Z M0.5,15.5 C0.223857625,15.5 0,15.2761424 0,15 C0,14.7238576 0.223857625,14.5 0.5,14.5 L2.5,14.5 C2.77614237,14.5 3,14.7238576 3,15 C3,15.2761424 2.77614237,15.5 2.5,15.5 L0.5,15.5 Z M23,13 L23,5.5 C23,5.22385763 22.7761424,5 22.5,5 L10.5,5 C10.2238576,5 10,5.22385763 10,5.5 L10,13 L23,13 Z M10.5,4 L22.5,4 C23.3284271,4 24,4.67157288 24,5.5 L24,13.5 C24,13.7761424 23.7761424,14 23.5,14 L9.5,14 C9.22385763,14 9,13.7761424 9,13.5 L9,5.5 C9,4.67157288 9.67157288,4 10.5,4 Z" id="Combined-Shape" fill="#FFFFFF" fill-rule="nonzero" transform="translate(12.000000, 12.000000) scale(-1, 1) translate(-12.000000, -12.000000) "></path>
    </g>
</svg>